<svg xmlns="http://www.w3.org/2000/svg" version="1.1" viewBox="0 0 960 960">
    <path d="M106.7,853.3v106.7c-29.3,0-54.4-10.4-75.3-31.3-20.9-20.9-31.3-46-31.3-75.3h106.7ZM0,746.7v-106.7h106.7v106.7H0ZM0,533.3v-106.7h106.7v106.7H0ZM0,320v-106.7h106.7v106.7H0ZM106.7,106.7H0c0-29.3,10.4-54.4,31.3-75.3C52.2,10.4,77.3,0,106.7,0v106.7ZM213.3,960v-106.7h106.7v106.7h-106.7ZM213.3,106.7V0h106.7v106.7h-106.7ZM426.7,960v-106.7h106.7v106.7h-106.7ZM426.7,106.7V0h106.7v106.7h-106.7ZM640,960v-106.7h106.7v106.7h-106.7ZM640,106.7V0h106.7v106.7h-106.7ZM853.3,853.3h106.7c0,29.3-10.4,54.4-31.3,75.3-20.9,20.9-46,31.3-75.3,31.3v-106.7ZM853.3,746.7v-106.7h106.7v106.7h-106.7ZM853.3,533.3v-106.7h106.7v106.7h-106.7ZM853.3,320v-106.7h106.7v106.7h-106.7ZM853.3,106.7V0c29.3,0,54.4,10.4,75.3,31.3s31.3,46,31.3,75.3h-106.7Z"/>
</svg>