<svg xmlns="http://www.w3.org/2000/svg" version="1.1" viewBox="0 0 960 960">
    <path d="M500.7,668.2l365.5-365.5-56.7-56.7-365.5,365.5,56.7,56.7ZM216,763.1c-72.7-3.6-126.9-18.9-162.5-45.8C17.8,690.4,0,651.5,0,600.6s19.5-85.6,58.4-115.1c38.9-29.5,92.9-47.1,162-52.9,28.4-2.2,49.6-6.7,63.8-13.6,14.2-6.9,21.3-16.5,21.3-28.9,0-18.9-10.7-33.1-32.2-42.5s-56.9-16.4-106.4-20.7l7.6-87.3c74.9,5.8,130,20.9,165.3,45.3s52.9,59.5,52.9,105.3-14,68.7-42,90.5c-28,21.8-69.3,34.9-123.8,39.3-46.5,3.6-81.5,12.2-104.7,25.6-23.3,13.5-34.9,31.8-34.9,55.1s10.2,43.8,30.5,55.1,54.5,18,102.5,20.2l-4.4,87.3ZM521.5,770.8l-180-180,416.7-416.7c14.5-14.5,31.8-21.8,51.8-21.8s37.3,7.3,51.8,21.8l76.4,76.4c14.5,14.5,21.8,31.8,21.8,51.8s-7.3,37.3-21.8,51.8l-416.7,416.7ZM348,806.8c-12.4,2.9-23.3-.4-32.7-9.8s-12.7-20.4-9.8-32.7l36-173.5,180,180-173.5,36Z"/>
</svg>